<?xml version="1.0" encoding="UTF-8"?><svg id="Livello_1" xmlns="http://www.w3.org/2000/svg" viewBox="0 0 841.89 595.28"><defs><style>.cls-1{fill:#eda20a;}.cls-2{fill:#7f5d98;}.cls-3{fill:#4c4c4b;}.cls-4{fill:#60b3ad;}</style></defs><path class="cls-3" d="M207.65,342.21c-.69,0-1.38-.02-2.08-.05h-.01c-23.76,0-43.32-19.58-43.32-43.63s19.05-44.06,42.46-44.49c.27,0,.55,0,.82,0,11.41,0,22.14,4.38,30.3,12.39,8.36,8.2,12.96,19.17,12.96,30.88v6.23h-73.67c2.4,14.81,15.28,26.16,30.77,26.16,3.87,.18,7.37-.26,10.76-1.32,4.93-1.52,8.37-3.96,9.97-5.27,3.06-2.51,5.52-5.58,7.34-9.14l11.11,5.66c-2.6,5.1-6.15,9.51-10.54,13.12-2.83,2.31-7.58,5.5-14.2,7.54-4.12,1.27-8.36,1.91-12.66,1.91Zm-32.1-51.14h60.12c-1.21-5.94-4.16-11.39-8.6-15.75-5.8-5.7-13.45-8.82-21.57-8.82-.19,0-.39,0-.58,0-14.21,.26-26.15,10.73-29.37,24.56Z"/><path class="cls-1" d="M345.45,340.48s0-.07,0-.1l-.17-44.17c0-11.71-4.6-22.67-12.96-30.88-8.35-8.2-19.32-12.53-31.12-12.39-17.19,.32-32.58,11.17-39.2,27.64l11.57,4.65c4.75-11.82,15.69-19.6,27.86-19.82,.19,0,.39,0,.58,0,8.13,0,15.77,3.12,21.58,8.82,5.95,5.84,9.22,13.65,9.22,22.01l.05,13.77c-.13-.13-.24-.27-.37-.4-8.36-8.2-19.43-12.56-31.12-12.39-23.42,.43-42.47,20.39-42.47,44.49h12.47c0-17.36,13.56-31.72,30.23-32.03,8.34-.27,16.21,2.98,22.16,8.82,5.92,5.81,9.19,13.58,9.22,21.88v1.36s12.47-.05,12.47-.05v-1.21s0,0,0,0Z"/><path class="cls-2" d="M535.79,254.54l-6.23-.2c-.54,17.08-13.81,30.7-30.21,31-.19,0-.39,0-.58,0-8.12,0-15.77-3.12-21.57-8.82-5.95-5.84-9.23-13.65-9.23-21.98h-12.47c0,11.71,4.6,22.68,12.96,30.88,8.16,8.01,18.89,12.39,30.3,12.39,.27,0,.54,0,.82,0,11.74-.22,22.32-5.24,29.99-13.24v14.6c0,17.36-13.56,31.72-30.23,32.03-.19,0-.39,0-.58,0-8.13,0-15.77-3.12-21.58-8.82-5.95-5.84-9.22-13.65-9.22-21.98h-12.47c0,11.71,4.6,22.67,12.96,30.87,8.16,8.01,18.89,12.39,30.31,12.39,.27,0,.54,0,.82,0,23.42-.43,42.47-20.39,42.47-44.49v-44.63h-6.24Z"/><path class="cls-4" d="M444.36,341.71h-12.47c0-17.66-14.37-32.03-32.03-32.03h-14.38c-15.26,0-27.67-12.41-27.67-27.67s12.41-27.67,27.67-27.67h52.64v12.47h-52.64c-8.38,0-15.2,6.82-15.2,15.2s6.82,15.2,15.2,15.2h14.38c24.54,0,44.5,19.96,44.5,44.5Z"/><g><path class="cls-3" d="M569.31,264.4c-.3-.58-.69-1.06-1.19-1.44-.5-.38-1.07-.66-1.72-.83-.65-.18-1.34-.26-2.07-.26-.57,0-1.14,.06-1.72,.18s-1.11,.33-1.6,.61c-.48,.28-.88,.65-1.17,1.11-.3,.46-.44,1.03-.44,1.7,0,.57,.14,1.05,.43,1.44,.28,.39,.64,.72,1.07,1,.43,.27,.91,.49,1.42,.67,.51,.18,.99,.32,1.42,.43l3.41,.77c.73,.11,1.45,.3,2.17,.59,.72,.28,1.35,.65,1.9,1.11s1.01,1.03,1.36,1.7c.35,.68,.53,1.47,.53,2.39,0,1.13-.26,2.1-.77,2.89-.51,.8-1.17,1.45-1.96,1.95-.8,.5-1.7,.86-2.69,1.07-1,.22-1.99,.33-2.96,.33-2.46,0-4.45-.58-5.98-1.74-1.53-1.16-2.4-3.03-2.61-5.59h2.55c.11,1.73,.74,3.03,1.88,3.91,1.15,.88,2.58,1.31,4.28,1.31,.62,0,1.26-.07,1.92-.2s1.28-.37,1.84-.69c.57-.33,1.03-.74,1.4-1.24,.37-.5,.55-1.12,.55-1.84,0-.62-.13-1.14-.39-1.56-.26-.42-.6-.77-1.03-1.05-.43-.28-.93-.52-1.48-.71-.55-.19-1.11-.35-1.68-.49l-3.28-.73c-.84-.22-1.61-.47-2.31-.75-.7-.29-1.31-.64-1.84-1.06-.53-.42-.94-.93-1.24-1.54-.3-.61-.45-1.36-.45-2.25,0-1.05,.24-1.96,.71-2.72,.47-.75,1.09-1.36,1.84-1.82,.75-.46,1.6-.8,2.53-1.01,.93-.22,1.86-.32,2.78-.32,1.05,0,2.03,.13,2.94,.4,.9,.27,1.7,.69,2.39,1.25,.69,.57,1.24,1.27,1.64,2.11,.41,.84,.64,1.82,.69,2.96h-2.55c-.03-.78-.19-1.46-.49-2.05Z"/><path class="cls-3" d="M585.08,260.33v2.15h-4.26v14.1c0,.84,.12,1.49,.34,1.97,.23,.47,.8,.74,1.72,.79,.73,0,1.46-.04,2.19-.12v2.15c-.38,0-.76,.02-1.14,.04-.38,.03-.76,.04-1.14,.04-1.7,0-2.89-.33-3.56-.99-.68-.66-1-1.88-.97-3.67v-14.3h-3.65v-2.15h3.65v-6.28h2.55v6.28h4.26Z"/><path class="cls-3" d="M603.35,281.24v-3.77h-.08c-.68,1.41-1.65,2.48-2.94,3.22-1.28,.74-2.71,1.11-4.27,1.11-1.32,0-2.45-.18-3.38-.55-.93-.37-1.69-.89-2.27-1.56-.58-.67-1.01-1.5-1.28-2.47-.27-.97-.41-2.08-.41-3.32v-13.58h2.55v13.62c.05,1.89,.49,3.32,1.32,4.3,.82,.97,2.25,1.46,4.27,1.46,1.11,0,2.05-.23,2.84-.71,.78-.47,1.43-1.1,1.95-1.88,.51-.78,.89-1.68,1.14-2.69s.36-2.05,.36-3.1v-10.98h2.55v20.91h-2.35Z"/><path class="cls-3" d="M626.57,281.24v-3.97h-.08c-.27,.68-.67,1.3-1.2,1.86-.53,.57-1.13,1.05-1.8,1.44-.68,.39-1.4,.69-2.17,.91s-1.53,.33-2.29,.33c-1.6,0-2.98-.29-4.15-.87-1.17-.58-2.16-1.38-2.94-2.39-.79-1.01-1.37-2.19-1.74-3.52s-.57-2.75-.57-4.23,.19-2.9,.57-4.23c.38-1.34,.96-2.51,1.74-3.52,.78-1.01,1.76-1.82,2.94-2.41,1.17-.59,2.56-.89,4.15-.89,.79,0,1.55,.09,2.29,.28,.74,.19,1.44,.48,2.09,.87,.65,.39,1.22,.87,1.72,1.44,.5,.57,.88,1.23,1.15,1.98h.08v-12h2.55v28.93h-2.35Zm-14-7.23c.26,1.07,.66,2.02,1.21,2.86,.55,.84,1.26,1.52,2.13,2.05s1.91,.79,3.12,.79c1.35,0,2.49-.26,3.42-.79,.93-.53,1.69-1.21,2.27-2.05,.58-.84,1-1.79,1.25-2.86,.26-1.07,.39-2.14,.39-3.22s-.13-2.16-.39-3.22c-.26-1.07-.68-2.02-1.25-2.86-.58-.84-1.34-1.52-2.27-2.05-.93-.53-2.07-.79-3.42-.79-1.21,0-2.26,.26-3.12,.79-.86,.53-1.57,1.21-2.13,2.05-.55,.84-.96,1.79-1.21,2.86-.26,1.07-.38,2.14-.38,3.22s.13,2.16,.38,3.22Z"/><path class="cls-3" d="M636.38,252.31v4.09h-2.55v-4.09h2.55Zm0,8.02v20.91h-2.55v-20.91h2.55Z"/><path class="cls-3" d="M654.35,260.61c1.23,.6,2.26,1.39,3.1,2.39s1.47,2.17,1.91,3.5c.43,1.34,.65,2.76,.65,4.28s-.22,2.94-.65,4.27c-.43,1.34-1.07,2.51-1.91,3.51-.84,1-1.87,1.79-3.1,2.37-1.23,.58-2.64,.87-4.23,.87s-3.01-.29-4.23-.87c-1.23-.58-2.26-1.37-3.1-2.37-.84-1-1.47-2.17-1.9-3.51-.43-1.34-.65-2.76-.65-4.27s.22-2.94,.65-4.28c.43-1.34,1.07-2.51,1.9-3.5,.84-1,1.87-1.8,3.1-2.39,1.23-.59,2.64-.89,4.23-.89s3,.3,4.23,.89Zm-7.44,2.03c-.92,.51-1.68,1.19-2.29,2.03s-1.07,1.79-1.38,2.86c-.31,1.07-.47,2.16-.47,3.26s.16,2.19,.47,3.26c.31,1.07,.77,2.02,1.38,2.86s1.37,1.51,2.29,2.02c.92,.51,1.98,.77,3.2,.77s2.28-.26,3.2-.77c.92-.51,1.68-1.19,2.29-2.02,.61-.84,1.07-1.79,1.38-2.86,.31-1.07,.47-2.15,.47-3.26s-.16-2.19-.47-3.26c-.31-1.07-.77-2.02-1.38-2.86-.61-.84-1.37-1.51-2.29-2.03-.92-.51-1.98-.77-3.2-.77s-2.28,.26-3.2,.77Z"/></g></svg>